<svg xmlns="http://www.w3.org/2000/svg" version="1.1"
    xmlns:xlink="http://www.w3.org/1999/xlink" width="512" height="512" x="0" y="0" viewBox="0 0 682.667 682.667" xml:space="preserve">
    <g>
        <defs>
            <clipPath id="a" clipPathUnits="userSpaceOnUse">
                <path d="M0 512h512V0H0Z"></path>
            </clipPath>
            <clipPath id="b" clipPathUnits="userSpaceOnUse">
                <path d="M0 512h512V0H0Z"></path>
            </clipPath>
        </defs>
        <g clip-path="url(#a)" transform="matrix(1.33333 0 0 -1.33333 0 682.667)">
            <path d="M0 0h162.023L81.012 81.012Z" style="stroke-width:30;stroke-linecap:round;stroke-linejoin:round;stroke-miterlimit:10;stroke-dasharray:none;stroke-opacity:1" transform="translate(15 342.97)" fill="none" stroke="#4A1564" stroke-width="30" stroke-linecap="round" stroke-linejoin="round" stroke-miterlimit="10" stroke-dasharray="none"></path>
            <path d="m0 0 286.421 286.421-157.531 71.604-243.458-243.457" style="stroke-width:30;stroke-linecap:round;stroke-linejoin:round;stroke-miterlimit:10;stroke-dasharray:none;stroke-opacity:1" transform="translate(210.58 36)" fill="none" stroke="#4A1564" stroke-width="30" stroke-linecap="round" stroke-linejoin="round" stroke-miterlimit="10" stroke-dasharray="none"></path>
        </g>
        <path d="m0 0 136.707-136.706" style="stroke-width:30;stroke-linecap:round;stroke-linejoin:round;stroke-miterlimit:10;stroke-dasharray:none;stroke-opacity:1" transform="matrix(1.33333 0 0 -1.33333 128.016 117.357)" fill="none" stroke="#4A1564" stroke-width="30" stroke-linecap="round" stroke-linejoin="round" stroke-miterlimit="10" stroke-dasharray="none"></path>
        <g clip-path="url(#b)" transform="matrix(1.33333 0 0 -1.33333 0 682.667)">
            <path d="M0 0h-273.416l-114.567 114.569v192.402" style="stroke-width:30;stroke-linecap:round;stroke-linejoin:round;stroke-miterlimit:10;stroke-dasharray:none;stroke-opacity:1" transform="translate(483.995 36)" fill="none" stroke="#4A1564" stroke-width="30" stroke-linecap="round" stroke-linejoin="round" stroke-miterlimit="10" stroke-dasharray="none"></path>
            <path d="m0 0 136.708-136.708" style="stroke-width:30;stroke-linecap:round;stroke-linejoin:round;stroke-miterlimit:10;stroke-dasharray:none;stroke-opacity:1" transform="translate(347.287 172.708)" fill="none" stroke="#4A1564" stroke-width="30" stroke-linecap="round" stroke-linejoin="round" stroke-miterlimit="10" stroke-dasharray="none"></path>
            <path d="m0 0 56.357 56.357-157.531 71.606-147.737-147.736" style="stroke-width:30;stroke-linecap:round;stroke-linejoin:round;stroke-miterlimit:10;stroke-dasharray:none;stroke-opacity:1" transform="translate(440.643 348.037)" fill="none" stroke="#4A1564" stroke-width="30" stroke-linecap="round" stroke-linejoin="round" stroke-miterlimit="10" stroke-dasharray="none"></path>
        </g>
    </g>
</svg>